<mxfile host="app.diagrams.net" agent="Mozilla/5.0 (Windows NT 10.0; Win64; x64) AppleWebKit/537.36 (KHTML, like Gecko) Chrome/131.0.0.0 Safari/537.36 OPR/116.0.0.0" version="26.0.11">
  <diagram name="Page-1" id="Z7Ey0U0z99MRVi9VGYC4">
    <mxGraphModel dx="2206" dy="1174" grid="1" gridSize="10" guides="1" tooltips="1" connect="1" arrows="1" fold="1" page="1" pageScale="1" pageWidth="827" pageHeight="1169" math="0" shadow="0">
      <root>
        <mxCell id="0" />
        <mxCell id="1" parent="0" />
        <mxCell id="E0rnbA16oz293dt33sfK-1" value="" style="rounded=0;whiteSpace=wrap;html=1;" parent="1" vertex="1">
          <mxGeometry x="200" y="80" width="1570" height="750" as="geometry" />
        </mxCell>
        <mxCell id="E0rnbA16oz293dt33sfK-2" value="" style="rounded=1;whiteSpace=wrap;html=1;fillColor=#d5e8d4;strokeColor=#82b366;" parent="1" vertex="1">
          <mxGeometry x="275" y="159" width="955" height="538" as="geometry" />
        </mxCell>
        <mxCell id="E0rnbA16oz293dt33sfK-3" style="edgeStyle=orthogonalEdgeStyle;rounded=0;orthogonalLoop=1;jettySize=auto;html=1;" parent="1" source="E0rnbA16oz293dt33sfK-4" target="E0rnbA16oz293dt33sfK-29" edge="1">
          <mxGeometry relative="1" as="geometry">
            <Array as="points">
              <mxPoint x="840" y="600" />
              <mxPoint x="992" y="600" />
            </Array>
          </mxGeometry>
        </mxCell>
        <mxCell id="E0rnbA16oz293dt33sfK-4" value="" style="rounded=0;whiteSpace=wrap;html=1;fillColor=#dae8fc;strokeColor=#6c8ebf;dashed=1;dashPattern=8 8;" parent="1" vertex="1">
          <mxGeometry x="715" y="199" width="375" height="385" as="geometry" />
        </mxCell>
        <mxCell id="E0rnbA16oz293dt33sfK-5" style="edgeStyle=orthogonalEdgeStyle;rounded=0;orthogonalLoop=1;jettySize=auto;html=1;" parent="1" source="E0rnbA16oz293dt33sfK-6" target="E0rnbA16oz293dt33sfK-27" edge="1">
          <mxGeometry relative="1" as="geometry" />
        </mxCell>
        <mxCell id="E0rnbA16oz293dt33sfK-6" value="" style="rounded=0;whiteSpace=wrap;html=1;fillColor=#dae8fc;strokeColor=#6c8ebf;dashed=1;dashPattern=8 8;" parent="1" vertex="1">
          <mxGeometry x="325" y="199" width="240" height="381" as="geometry" />
        </mxCell>
        <mxCell id="E0rnbA16oz293dt33sfK-7" value="" style="group" parent="1" vertex="1" connectable="0">
          <mxGeometry x="596" y="119" width="78" height="108" as="geometry" />
        </mxCell>
        <mxCell id="E0rnbA16oz293dt33sfK-8" value="VPC" style="sketch=0;points=[[0,0,0],[0.25,0,0],[0.5,0,0],[0.75,0,0],[1,0,0],[0,1,0],[0.25,1,0],[0.5,1,0],[0.75,1,0],[1,1,0],[0,0.25,0],[0,0.5,0],[0,0.75,0],[1,0.25,0],[1,0.5,0],[1,0.75,0]];outlineConnect=0;fontColor=#232F3E;fillColor=#8C4FFF;strokeColor=#ffffff;dashed=0;verticalLabelPosition=bottom;verticalAlign=top;align=center;html=1;fontSize=12;fontStyle=0;aspect=fixed;shape=mxgraph.aws4.resourceIcon;resIcon=mxgraph.aws4.vpc;" parent="E0rnbA16oz293dt33sfK-7" vertex="1">
          <mxGeometry width="78" height="78" as="geometry" />
        </mxCell>
        <mxCell id="E0rnbA16oz293dt33sfK-9" value="public-subnet-a" style="whiteSpace=wrap;html=1;fillColor=#1ba1e2;fontColor=#ffffff;strokeColor=#006EAF;" parent="1" vertex="1">
          <mxGeometry x="285" y="229" width="120" height="20" as="geometry" />
        </mxCell>
        <mxCell id="E0rnbA16oz293dt33sfK-10" value="public-subnet-b" style="whiteSpace=wrap;html=1;fillColor=#1ba1e2;fontColor=#ffffff;strokeColor=#006EAF;" parent="1" vertex="1">
          <mxGeometry x="285" y="259" width="120" height="20" as="geometry" />
        </mxCell>
        <mxCell id="E0rnbA16oz293dt33sfK-11" value="private-subnet-a" style="whiteSpace=wrap;html=1;fillColor=#1ba1e2;fontColor=#ffffff;strokeColor=#006EAF;" parent="1" vertex="1">
          <mxGeometry x="674" y="229" width="120" height="20" as="geometry" />
        </mxCell>
        <mxCell id="E0rnbA16oz293dt33sfK-12" value="private-subnet-b" style="whiteSpace=wrap;html=1;fillColor=#1ba1e2;fontColor=#ffffff;strokeColor=#006EAF;" parent="1" vertex="1">
          <mxGeometry x="674" y="259" width="120" height="20" as="geometry" />
        </mxCell>
        <mxCell id="E0rnbA16oz293dt33sfK-13" value="" style="rounded=1;whiteSpace=wrap;html=1;fillColor=#fff2cc;strokeColor=#d6b656;" parent="1" vertex="1">
          <mxGeometry x="366" y="289" width="544" height="249" as="geometry" />
        </mxCell>
        <mxCell id="E0rnbA16oz293dt33sfK-14" value="" style="group" parent="1" vertex="1" connectable="0">
          <mxGeometry x="415" y="274" width="50" height="71" as="geometry" />
        </mxCell>
        <mxCell id="E0rnbA16oz293dt33sfK-15" value="EKS" style="sketch=0;points=[[0,0,0],[0.25,0,0],[0.5,0,0],[0.75,0,0],[1,0,0],[0,1,0],[0.25,1,0],[0.5,1,0],[0.75,1,0],[1,1,0],[0,0.25,0],[0,0.5,0],[0,0.75,0],[1,0.25,0],[1,0.5,0],[1,0.75,0]];outlineConnect=0;fontColor=#232F3E;fillColor=#ED7100;strokeColor=#ffffff;dashed=0;verticalLabelPosition=bottom;verticalAlign=top;align=center;html=1;fontSize=12;fontStyle=0;aspect=fixed;shape=mxgraph.aws4.resourceIcon;resIcon=mxgraph.aws4.eks;" parent="E0rnbA16oz293dt33sfK-14" vertex="1">
          <mxGeometry width="50" height="50" as="geometry" />
        </mxCell>
        <mxCell id="E0rnbA16oz293dt33sfK-16" value="" style="group" parent="1" vertex="1" connectable="0">
          <mxGeometry x="410" y="679" width="70" height="85" as="geometry" />
        </mxCell>
        <mxCell id="E0rnbA16oz293dt33sfK-17" value="Internet&lt;br&gt;Gateway" style="sketch=0;outlineConnect=0;fontColor=#232F3E;gradientColor=none;fillColor=#8C4FFF;strokeColor=none;dashed=0;verticalLabelPosition=bottom;verticalAlign=top;align=center;html=1;fontSize=12;fontStyle=0;aspect=fixed;pointerEvents=1;shape=mxgraph.aws4.internet_gateway;" parent="E0rnbA16oz293dt33sfK-16" vertex="1">
          <mxGeometry x="10" width="50" height="50" as="geometry" />
        </mxCell>
        <mxCell id="E0rnbA16oz293dt33sfK-18" value="" style="group" parent="1" vertex="1" connectable="0">
          <mxGeometry x="941.5" y="715" width="100" height="75" as="geometry" />
        </mxCell>
        <mxCell id="E0rnbA16oz293dt33sfK-19" value="NAT Gateway" style="sketch=0;outlineConnect=0;fontColor=#232F3E;gradientColor=none;fillColor=#8C4FFF;strokeColor=none;dashed=0;verticalLabelPosition=bottom;verticalAlign=top;align=center;html=1;fontSize=12;fontStyle=0;aspect=fixed;pointerEvents=1;shape=mxgraph.aws4.nat_gateway;" parent="E0rnbA16oz293dt33sfK-18" vertex="1">
          <mxGeometry x="25" width="50" height="50" as="geometry" />
        </mxCell>
        <mxCell id="E0rnbA16oz293dt33sfK-20" value="" style="rounded=1;whiteSpace=wrap;html=1;fillColor=#ffe6cc;strokeColor=#d79b00;" parent="1" vertex="1">
          <mxGeometry x="387" y="346" width="503" height="143" as="geometry" />
        </mxCell>
        <mxCell id="E0rnbA16oz293dt33sfK-21" value="Dotcluster" style="text;html=1;align=center;verticalAlign=middle;resizable=0;points=[];autosize=1;strokeColor=none;fillColor=none;" parent="1" vertex="1">
          <mxGeometry x="599" y="294" width="72" height="26" as="geometry" />
        </mxCell>
        <mxCell id="E0rnbA16oz293dt33sfK-22" value="Node Group: Dotcluster-nodes" style="text;html=1;align=center;verticalAlign=middle;resizable=0;points=[];autosize=1;strokeColor=none;fillColor=none;" parent="1" vertex="1">
          <mxGeometry x="415" y="354" width="181" height="26" as="geometry" />
        </mxCell>
        <mxCell id="E0rnbA16oz293dt33sfK-23" value="EC2" style="sketch=0;points=[[0,0,0],[0.25,0,0],[0.5,0,0],[0.75,0,0],[1,0,0],[0,1,0],[0.25,1,0],[0.5,1,0],[0.75,1,0],[1,1,0],[0,0.25,0],[0,0.5,0],[0,0.75,0],[1,0.25,0],[1,0.5,0],[1,0.75,0]];outlineConnect=0;fontColor=#232F3E;fillColor=#ED7100;strokeColor=#ffffff;dashed=0;verticalLabelPosition=bottom;verticalAlign=top;align=center;html=1;fontSize=12;fontStyle=0;aspect=fixed;shape=mxgraph.aws4.resourceIcon;resIcon=mxgraph.aws4.ec2;" parent="1" vertex="1">
          <mxGeometry x="530" y="394" width="46" height="46" as="geometry" />
        </mxCell>
        <mxCell id="E0rnbA16oz293dt33sfK-24" value="EC2" style="sketch=0;points=[[0,0,0],[0.25,0,0],[0.5,0,0],[0.75,0,0],[1,0,0],[0,1,0],[0.25,1,0],[0.5,1,0],[0.75,1,0],[1,1,0],[0,0.25,0],[0,0.5,0],[0,0.75,0],[1,0.25,0],[1,0.5,0],[1,0.75,0]];outlineConnect=0;fontColor=#232F3E;fillColor=#ED7100;strokeColor=#ffffff;dashed=0;verticalLabelPosition=bottom;verticalAlign=top;align=center;html=1;fontSize=12;fontStyle=0;aspect=fixed;shape=mxgraph.aws4.resourceIcon;resIcon=mxgraph.aws4.ec2;" parent="1" vertex="1">
          <mxGeometry x="610" y="394" width="46" height="46" as="geometry" />
        </mxCell>
        <mxCell id="E0rnbA16oz293dt33sfK-25" value="EC2" style="sketch=0;points=[[0,0,0],[0.25,0,0],[0.5,0,0],[0.75,0,0],[1,0,0],[0,1,0],[0.25,1,0],[0.5,1,0],[0.75,1,0],[1,1,0],[0,0.25,0],[0,0.5,0],[0,0.75,0],[1,0.25,0],[1,0.5,0],[1,0.75,0]];outlineConnect=0;fontColor=#232F3E;fillColor=#ED7100;strokeColor=#ffffff;dashed=0;verticalLabelPosition=bottom;verticalAlign=top;align=center;html=1;fontSize=12;fontStyle=0;aspect=fixed;shape=mxgraph.aws4.resourceIcon;resIcon=mxgraph.aws4.ec2;" parent="1" vertex="1">
          <mxGeometry x="685" y="394" width="46" height="46" as="geometry" />
        </mxCell>
        <mxCell id="E0rnbA16oz293dt33sfK-26" style="edgeStyle=orthogonalEdgeStyle;rounded=0;orthogonalLoop=1;jettySize=auto;html=1;" parent="1" source="E0rnbA16oz293dt33sfK-27" target="E0rnbA16oz293dt33sfK-17" edge="1">
          <mxGeometry relative="1" as="geometry" />
        </mxCell>
        <mxCell id="E0rnbA16oz293dt33sfK-27" value="Route table" style="sketch=0;outlineConnect=0;fontColor=#232F3E;gradientColor=none;fillColor=#8C4FFF;strokeColor=none;dashed=0;verticalLabelPosition=bottom;verticalAlign=top;align=center;html=1;fontSize=12;fontStyle=0;aspect=fixed;pointerEvents=1;shape=mxgraph.aws4.route_table;" parent="1" vertex="1">
          <mxGeometry x="425.5" y="603" width="39" height="38" as="geometry" />
        </mxCell>
        <mxCell id="E0rnbA16oz293dt33sfK-28" style="edgeStyle=orthogonalEdgeStyle;rounded=0;orthogonalLoop=1;jettySize=auto;html=1;" parent="1" source="E0rnbA16oz293dt33sfK-29" target="E0rnbA16oz293dt33sfK-19" edge="1">
          <mxGeometry relative="1" as="geometry" />
        </mxCell>
        <mxCell id="E0rnbA16oz293dt33sfK-29" value="Route table" style="sketch=0;outlineConnect=0;fontColor=#232F3E;gradientColor=none;fillColor=#8C4FFF;strokeColor=none;dashed=0;verticalLabelPosition=bottom;verticalAlign=top;align=center;html=1;fontSize=12;fontStyle=0;aspect=fixed;pointerEvents=1;shape=mxgraph.aws4.route_table;" parent="1" vertex="1">
          <mxGeometry x="972" y="630" width="39" height="38" as="geometry" />
        </mxCell>
        <mxCell id="AycsnPKM38HzW4_f1Zu2-22" value="" style="group" vertex="1" connectable="0" parent="1">
          <mxGeometry x="1594" y="420" width="60" height="90" as="geometry" />
        </mxCell>
        <mxCell id="AycsnPKM38HzW4_f1Zu2-4" value="" style="sketch=0;points=[[0,0,0],[0.25,0,0],[0.5,0,0],[0.75,0,0],[1,0,0],[0,1,0],[0.25,1,0],[0.5,1,0],[0.75,1,0],[1,1,0],[0,0.25,0],[0,0.5,0],[0,0.75,0],[1,0.25,0],[1,0.5,0],[1,0.75,0]];outlineConnect=0;fontColor=#232F3E;fillColor=#DD344C;strokeColor=#ffffff;dashed=0;verticalLabelPosition=bottom;verticalAlign=top;align=center;html=1;fontSize=12;fontStyle=0;aspect=fixed;shape=mxgraph.aws4.resourceIcon;resIcon=mxgraph.aws4.cognito;" vertex="1" parent="AycsnPKM38HzW4_f1Zu2-22">
          <mxGeometry width="60" height="60" as="geometry" />
        </mxCell>
        <mxCell id="AycsnPKM38HzW4_f1Zu2-14" value="Cognito" style="text;html=1;align=center;verticalAlign=middle;whiteSpace=wrap;rounded=0;" vertex="1" parent="AycsnPKM38HzW4_f1Zu2-22">
          <mxGeometry y="60" width="60" height="30" as="geometry" />
        </mxCell>
        <mxCell id="AycsnPKM38HzW4_f1Zu2-51" value="" style="group" vertex="1" connectable="0" parent="1">
          <mxGeometry x="1320" y="360" width="160" height="150" as="geometry" />
        </mxCell>
        <mxCell id="AycsnPKM38HzW4_f1Zu2-49" value="" style="rounded=0;whiteSpace=wrap;html=1;fillColor=#f8cecc;strokeColor=#b85450;" vertex="1" parent="AycsnPKM38HzW4_f1Zu2-51">
          <mxGeometry x="10" y="20" width="150" height="130" as="geometry" />
        </mxCell>
        <mxCell id="AycsnPKM38HzW4_f1Zu2-20" value="" style="group" vertex="1" connectable="0" parent="AycsnPKM38HzW4_f1Zu2-51">
          <mxGeometry width="60" height="90" as="geometry" />
        </mxCell>
        <mxCell id="AycsnPKM38HzW4_f1Zu2-15" value="SQS" style="text;html=1;align=center;verticalAlign=middle;whiteSpace=wrap;rounded=0;" vertex="1" parent="AycsnPKM38HzW4_f1Zu2-20">
          <mxGeometry y="60" width="60" height="30" as="geometry" />
        </mxCell>
        <mxCell id="AycsnPKM38HzW4_f1Zu2-10" value="" style="sketch=0;points=[[0,0,0],[0.25,0,0],[0.5,0,0],[0.75,0,0],[1,0,0],[0,1,0],[0.25,1,0],[0.5,1,0],[0.75,1,0],[1,1,0],[0,0.25,0],[0,0.5,0],[0,0.75,0],[1,0.25,0],[1,0.5,0],[1,0.75,0]];outlineConnect=0;fontColor=#232F3E;fillColor=#E7157B;strokeColor=#ffffff;dashed=0;verticalLabelPosition=bottom;verticalAlign=top;align=center;html=1;fontSize=12;fontStyle=0;aspect=fixed;shape=mxgraph.aws4.resourceIcon;resIcon=mxgraph.aws4.sqs;" vertex="1" parent="AycsnPKM38HzW4_f1Zu2-20">
          <mxGeometry width="60" height="60" as="geometry" />
        </mxCell>
        <mxCell id="AycsnPKM38HzW4_f1Zu2-35" value="" style="group" vertex="1" connectable="0" parent="1">
          <mxGeometry x="940" y="290" width="396.28" height="255.25" as="geometry" />
        </mxCell>
        <mxCell id="AycsnPKM38HzW4_f1Zu2-29" value="" style="rounded=0;whiteSpace=wrap;html=1;fillColor=#e1d5e7;strokeColor=#9673a6;" vertex="1" parent="AycsnPKM38HzW4_f1Zu2-35">
          <mxGeometry x="19" y="39.5" width="230" height="171" as="geometry" />
        </mxCell>
        <mxCell id="AycsnPKM38HzW4_f1Zu2-21" value="" style="group" vertex="1" connectable="0" parent="AycsnPKM38HzW4_f1Zu2-35">
          <mxGeometry x="79" y="80.5" width="105.05999999999995" height="103.5" as="geometry" />
        </mxCell>
        <mxCell id="AycsnPKM38HzW4_f1Zu2-3" value="" style="image;aspect=fixed;html=1;points=[];align=center;fontSize=12;image=img/lib/azure2/databases/Azure_Database_PostgreSQL_Server.svg;" vertex="1" parent="AycsnPKM38HzW4_f1Zu2-21">
          <mxGeometry x="24.969999999999914" width="55.13" height="73.5" as="geometry" />
        </mxCell>
        <mxCell id="AycsnPKM38HzW4_f1Zu2-13" value="Media Management DB" style="text;html=1;align=center;verticalAlign=middle;whiteSpace=wrap;rounded=0;" vertex="1" parent="AycsnPKM38HzW4_f1Zu2-21">
          <mxGeometry y="73.5" width="105.06" height="30" as="geometry" />
        </mxCell>
        <mxCell id="AycsnPKM38HzW4_f1Zu2-33" value="" style="sketch=0;points=[[0,0,0],[0.25,0,0],[0.5,0,0],[0.75,0,0],[1,0,0],[0,1,0],[0.25,1,0],[0.5,1,0],[0.75,1,0],[1,1,0],[0,0.25,0],[0,0.5,0],[0,0.75,0],[1,0.25,0],[1,0.5,0],[1,0.75,0]];outlineConnect=0;fontColor=#232F3E;fillColor=#C925D1;strokeColor=#ffffff;dashed=0;verticalLabelPosition=bottom;verticalAlign=top;align=center;html=1;fontSize=12;fontStyle=0;aspect=fixed;shape=mxgraph.aws4.resourceIcon;resIcon=mxgraph.aws4.rds;" vertex="1" parent="AycsnPKM38HzW4_f1Zu2-35">
          <mxGeometry width="59" height="59" as="geometry" />
        </mxCell>
        <mxCell id="AycsnPKM38HzW4_f1Zu2-34" value="RDS" style="text;html=1;align=center;verticalAlign=middle;whiteSpace=wrap;rounded=0;" vertex="1" parent="AycsnPKM38HzW4_f1Zu2-35">
          <mxGeometry y="54.5" width="60" height="30" as="geometry" />
        </mxCell>
        <mxCell id="AycsnPKM38HzW4_f1Zu2-56" value="" style="group" vertex="1" connectable="0" parent="1">
          <mxGeometry x="1300" y="130" width="390" height="180" as="geometry" />
        </mxCell>
        <mxCell id="AycsnPKM38HzW4_f1Zu2-36" value="" style="rounded=0;whiteSpace=wrap;html=1;fillColor=#d5e8d4;strokeColor=#82b366;" vertex="1" parent="AycsnPKM38HzW4_f1Zu2-56">
          <mxGeometry x="20" y="30" width="370" height="150" as="geometry" />
        </mxCell>
        <mxCell id="AycsnPKM38HzW4_f1Zu2-39" value="" style="group" vertex="1" connectable="0" parent="AycsnPKM38HzW4_f1Zu2-56">
          <mxGeometry width="60" height="90" as="geometry" />
        </mxCell>
        <mxCell id="AycsnPKM38HzW4_f1Zu2-37" value="" style="sketch=0;points=[[0,0,0],[0.25,0,0],[0.5,0,0],[0.75,0,0],[1,0,0],[0,1,0],[0.25,1,0],[0.5,1,0],[0.75,1,0],[1,1,0],[0,0.25,0],[0,0.5,0],[0,0.75,0],[1,0.25,0],[1,0.5,0],[1,0.75,0]];outlineConnect=0;fontColor=#232F3E;fillColor=#7AA116;strokeColor=#ffffff;dashed=0;verticalLabelPosition=bottom;verticalAlign=top;align=center;html=1;fontSize=12;fontStyle=0;aspect=fixed;shape=mxgraph.aws4.resourceIcon;resIcon=mxgraph.aws4.s3;" vertex="1" parent="AycsnPKM38HzW4_f1Zu2-39">
          <mxGeometry width="60" height="60" as="geometry" />
        </mxCell>
        <mxCell id="AycsnPKM38HzW4_f1Zu2-38" value="S3" style="text;html=1;align=center;verticalAlign=middle;whiteSpace=wrap;rounded=0;" vertex="1" parent="AycsnPKM38HzW4_f1Zu2-39">
          <mxGeometry y="60" width="60" height="30" as="geometry" />
        </mxCell>
        <mxCell id="AycsnPKM38HzW4_f1Zu2-41" value="" style="group" vertex="1" connectable="0" parent="AycsnPKM38HzW4_f1Zu2-56">
          <mxGeometry x="110" y="66" width="63.460000000000036" height="96" as="geometry" />
        </mxCell>
        <mxCell id="AycsnPKM38HzW4_f1Zu2-17" value="ZipImagesBucket" style="text;html=1;align=center;verticalAlign=middle;whiteSpace=wrap;rounded=0;" vertex="1" parent="AycsnPKM38HzW4_f1Zu2-41">
          <mxGeometry x="1.7300000000000182" y="66" width="60" height="30" as="geometry" />
        </mxCell>
        <mxCell id="AycsnPKM38HzW4_f1Zu2-40" value="" style="sketch=0;outlineConnect=0;fontColor=#232F3E;gradientColor=none;fillColor=#7AA116;strokeColor=none;dashed=0;verticalLabelPosition=bottom;verticalAlign=top;align=center;html=1;fontSize=12;fontStyle=0;aspect=fixed;pointerEvents=1;shape=mxgraph.aws4.bucket;" vertex="1" parent="AycsnPKM38HzW4_f1Zu2-41">
          <mxGeometry width="63.46" height="66" as="geometry" />
        </mxCell>
        <mxCell id="AycsnPKM38HzW4_f1Zu2-46" value="" style="group" vertex="1" connectable="0" parent="AycsnPKM38HzW4_f1Zu2-56">
          <mxGeometry x="240" y="66" width="63.460000000000036" height="94" as="geometry" />
        </mxCell>
        <mxCell id="AycsnPKM38HzW4_f1Zu2-16" value="VideosBucket" style="text;html=1;align=center;verticalAlign=middle;whiteSpace=wrap;rounded=0;" vertex="1" parent="AycsnPKM38HzW4_f1Zu2-46">
          <mxGeometry x="1.7300000000000182" y="64" width="60" height="30" as="geometry" />
        </mxCell>
        <mxCell id="AycsnPKM38HzW4_f1Zu2-45" value="" style="sketch=0;outlineConnect=0;fontColor=#232F3E;gradientColor=none;fillColor=#7AA116;strokeColor=none;dashed=0;verticalLabelPosition=bottom;verticalAlign=top;align=center;html=1;fontSize=12;fontStyle=0;aspect=fixed;pointerEvents=1;shape=mxgraph.aws4.bucket;" vertex="1" parent="AycsnPKM38HzW4_f1Zu2-46">
          <mxGeometry width="63.46" height="66" as="geometry" />
        </mxCell>
      </root>
    </mxGraphModel>
  </diagram>
</mxfile>
